<svg xmlns="http://www.w3.org/2000/svg" viewBox="0 0 56 57" fill="#FE5F55">
    <path d="M38.0637 28.3427L55.1667 45.4307C56.2778 46.5408 56.2778 48.3432 55.1667 49.4533L49.1319 55.4828C48.0208 56.5929 46.2196 56.5929 45.1058 55.4828L28 38.3948L10.8942 55.4828C9.78317 56.5929 7.98196 56.5929 6.87094 55.4828L0.833266 49.4533C-0.277756 48.3432 -0.277756 46.5436 0.833266 45.4307L17.9391 28.3427L0.833266 11.2518C-0.277756 10.1418 -0.277756 8.33936 0.833266 7.22931L6.87375 1.19972C7.98477 0.089675 9.78597 0.089675 10.897 1.19972L28 18.2906L45.1058 1.19972C46.2168 0.089675 48.018 0.089675 49.1319 1.19972L55.1667 7.23212C56.2778 8.34217 56.2778 10.1418 55.1667 11.2546L38.0637 28.3427Z"/>
</svg>